<svg width="22" height="24" viewBox="0 0 22 24" fill="none" xmlns="http://www.w3.org/2000/svg">
<path d="M13.8001 4.03749C12.3126 4.64999 10.4751 3.42499 10.4751 3.42499C10.4751 3.42499 11.0876 1.32499 12.5751 0.799988C14.0626 0.274988 15.9001 1.41249 15.9001 1.41249C15.9001 1.41249 15.2876 3.42499 13.8001 4.03749Z" stroke="#5631FA" stroke-miterlimit="10" stroke-linecap="round" stroke-linejoin="round"/>
<path d="M16.3376 5.96252C15.0251 5.70002 13.6251 6.05002 12.5751 6.75002C11.6126 7.36252 10.3876 7.36252 9.51257 6.75002C8.37507 6.05002 6.97507 5.70002 5.66257 5.96252C2.42507 6.48752 0.150071 9.90002 0.58757 13.575C1.02507 17.25 4.61257 23.8125 7.85007 23.2875C8.28757 23.2 8.72507 23.025 9.07507 22.7625C10.2126 21.975 11.7876 21.975 12.9251 22.7625C13.2751 23.025 13.7126 23.2 14.1501 23.2875C17.3876 23.8125 20.9751 17.25 21.4126 13.575C21.9376 9.90002 19.6626 6.48752 16.3376 5.96252Z" stroke="#5631FA" stroke-miterlimit="10" stroke-linecap="round" stroke-linejoin="round"/>
<path d="M7.5 0.625L7.85 0.8875C9.8625 2.375 11 4.7375 11 7.1875" stroke="#5631FA" stroke-miterlimit="10" stroke-linecap="round" stroke-linejoin="round"/>
</svg>
