<svg width="16" height="16" viewBox="0 0 16 16" fill="none" xmlns="http://www.w3.org/2000/svg">
<path opacity="0.4" d="M15.2316 9.86546L13.9004 9.09671C14.0348 8.37171 14.0348 7.62796 13.9004 6.90296L15.2316 6.13421C15.3848 6.04671 15.4535 5.86546 15.4035 5.69671C15.0566 4.58421 14.466 3.57796 13.6941 2.74046C13.5754 2.61233 13.3816 2.58108 13.2316 2.66858L11.9004 3.43733C11.341 2.95608 10.6973 2.58421 10.0004 2.34046V0.806084C10.0004 0.631084 9.87851 0.477959 9.70663 0.440459C8.55976 0.184209 7.38476 0.196709 6.29413 0.440459C6.12226 0.477959 6.00038 0.631084 6.00038 0.806084V2.34358C5.30663 2.59046 4.66288 2.96233 4.10038 3.44046L2.77226 2.67171C2.61914 2.58421 2.42851 2.61233 2.30976 2.74358C1.53789 3.57796 0.947261 4.58421 0.600387 5.69983C0.547262 5.86858 0.619137 6.04983 0.772261 6.13733L2.10351 6.90608C1.96914 7.63108 1.96914 8.37483 2.10351 9.09983L0.772261 9.86858C0.619137 9.95608 0.550387 10.1373 0.600387 10.3061C0.947261 11.4186 1.53789 12.4248 2.30976 13.2623C2.42851 13.3905 2.62226 13.4217 2.77226 13.3342L4.10351 12.5655C4.66288 13.0467 5.30663 13.4186 6.00351 13.6623V15.1998C6.00351 15.3748 6.12538 15.528 6.29726 15.5655C7.44413 15.8217 8.61913 15.8092 9.70976 15.5655C9.88163 15.528 10.0035 15.3748 10.0035 15.1998V13.6623C10.6973 13.4155 11.341 13.0436 11.9035 12.5655L13.2348 13.3342C13.3879 13.4217 13.5785 13.3936 13.6973 13.2623C14.4691 12.428 15.0598 11.4217 15.4066 10.3061C15.4535 10.1342 15.3848 9.95296 15.2316 9.86546ZM8.00038 10.4998C6.62226 10.4998 5.50038 9.37796 5.50038 7.99983C5.50038 6.62171 6.62226 5.49983 8.00038 5.49983C9.37851 5.49983 10.5004 6.62171 10.5004 7.99983C10.5004 9.37796 9.37851 10.4998 8.00038 10.4998Z" fill="#9FA2B4"/>
</svg>
