<svg width="12" height="16" viewBox="0 0 12 16" fill="none" xmlns="http://www.w3.org/2000/svg">
<path opacity="0.4" d="M3.03506 11.3324C2.7635 11.0609 2.90506 11.1374 2.25006 10.9621C1.95287 10.8824 1.69162 10.7293 1.45537 10.5459L0.0375617 14.0221C-0.0996258 14.3587 0.156624 14.7243 0.519749 14.7106L2.16631 14.6478L3.29881 15.844C3.54881 16.1078 3.98756 16.0256 4.12475 15.689L5.75131 11.7009C5.41256 11.8896 5.03662 12.0003 4.64787 12.0003C4.0385 12.0003 3.466 11.7631 3.03506 11.3324ZM11.9626 14.0221L10.5447 10.5459C10.3085 10.7296 10.0472 10.8824 9.75006 10.9621C9.09162 11.1384 9.236 11.0615 8.96506 11.3324C8.53412 11.7631 7.96131 12.0003 7.35194 12.0003C6.96319 12.0003 6.58725 11.8893 6.2485 11.7009L7.87506 15.689C8.01225 16.0256 8.45131 16.1078 8.701 15.844L9.83381 14.6478L11.4804 14.7106C11.8435 14.7243 12.0997 14.3584 11.9626 14.0221ZM8.21881 10.6253C8.69631 10.1393 8.751 10.1812 9.431 9.99588C9.86506 9.87744 10.2044 9.53213 10.3207 9.09025C10.5544 8.20275 10.4938 8.30994 11.1316 7.66056C11.4494 7.33713 11.5735 6.86556 11.4572 6.42369C11.2238 5.53681 11.2235 5.66056 11.4572 4.77275C11.5735 4.33088 11.4494 3.85931 11.1316 3.53588C10.4938 2.8865 10.5544 2.99338 10.3207 2.10619C10.2044 1.66431 9.86506 1.319 9.431 1.20056C8.55975 0.962752 8.66475 1.02494 8.02631 0.375252C7.7085 0.0518145 7.24506 -0.074748 6.811 0.0436895C5.94006 0.281189 6.06162 0.281502 5.18912 0.0436895C4.75506 -0.074748 4.29162 0.051502 3.97381 0.375252C3.336 1.02463 3.441 0.962752 2.56944 1.20056C2.13537 1.319 1.796 1.66431 1.67975 2.10619C1.44631 2.99338 1.50662 2.8865 0.868812 3.53588C0.550999 3.85931 0.426624 4.33088 0.543187 4.77275C0.776624 5.659 0.776937 5.53525 0.543187 6.42338C0.426937 6.86525 0.550999 7.33681 0.868812 7.66056C1.50662 8.30994 1.446 8.20275 1.67975 9.09025C1.796 9.53213 2.13537 9.87744 2.56944 9.99588C3.26881 10.1865 3.321 10.1565 3.78131 10.6253C4.19475 11.0462 4.83881 11.1215 5.33569 10.8071C5.53438 10.681 5.76487 10.614 6.00022 10.614C6.23557 10.614 6.46606 10.681 6.66475 10.8071C7.16131 11.1215 7.80537 11.0462 8.21881 10.6253ZM3.05194 5.499C3.05194 3.84181 4.37194 2.49838 6.00006 2.49838C7.62819 2.49838 8.94819 3.84181 8.94819 5.499C8.94819 7.15619 7.62819 8.49963 6.00006 8.49963C4.37194 8.49963 3.05194 7.15619 3.05194 5.499Z" fill="#9FA2B4"/>
</svg>
