<svg width="16" height="12" viewBox="0 0 16 12" fill="none" xmlns="http://www.w3.org/2000/svg">
<path d="M3.55556 3.33366H12.4444V8.66699H3.55556V3.33366ZM14.6667 6.00033C14.6667 6.73671 15.2636 7.33366 16 7.33366V10.0003C16 10.7367 15.4031 11.3337 14.6667 11.3337H1.33333C0.596944 11.3337 0 10.7367 0 10.0003V7.33366C0.736389 7.33366 1.33333 6.73671 1.33333 6.00033C1.33333 5.26394 0.736389 4.66699 0 4.66699V2.00033C0 1.26394 0.596944 0.666992 1.33333 0.666992H14.6667C15.4031 0.666992 16 1.26394 16 2.00033V4.66699C15.2636 4.66699 14.6667 5.26394 14.6667 6.00033ZM13.3333 3.11144C13.3333 2.74324 13.0349 2.44477 12.6667 2.44477H3.33333C2.96514 2.44477 2.66667 2.74324 2.66667 3.11144V8.88921C2.66667 9.25741 2.96514 9.55588 3.33333 9.55588H12.6667C13.0349 9.55588 13.3333 9.25741 13.3333 8.88921V3.11144Z" fill="#DDE2FF"/>
</svg>
