<svg width="24" height="24" viewBox="0 0 24 24" fill="none" xmlns="http://www.w3.org/2000/svg">
<mask id="path-1-inside-1_5094_3140" fill="white">
<path d="M23.2609 9.89385L23.7 8.71486L22.4464 5.6892L21.3023 5.16708L19.9778 5.6086L19.6469 5.50514C19.2163 4.9758 18.729 4.48977 18.1961 4.05667L18.0926 3.72343L18.5341 2.39767L18.012 1.25357L14.9863 0L13.8086 0.440315L13.183 1.69028L12.875 1.85149C12.1917 1.78051 11.5035 1.7793 10.825 1.84908L10.517 1.68908L9.89264 0.441518L8.71486 0L5.688 1.25357L5.16588 2.39767L5.6074 3.72102L5.50273 4.05306C4.97339 4.48375 4.48616 4.97098 4.05426 5.50393L3.72222 5.6074L2.39767 5.16588L1.25357 5.688L0 8.71486L0.439112 9.89385L1.68908 10.5194L1.85028 10.8274C1.7793 11.5095 1.7793 12.1977 1.84788 12.8774L1.68787 13.1854L0.440315 13.8098L0.00120296 14.9887L1.25478 18.0144L2.39887 18.5365L3.72222 18.0962L4.05306 18.1997C4.48375 18.729 4.97098 19.215 5.50393 19.6481L5.6074 19.979L5.16588 21.3047L5.6892 22.4488L8.71486 23.7024L9.89385 23.2621L10.5182 22.0133L10.8262 21.8521C11.5095 21.9231 12.1977 21.9231 12.8774 21.8533L13.1842 22.0145L13.8086 23.2621L14.9863 23.7012L18.012 22.4476L18.5341 21.3035L18.0938 19.9802L18.1973 19.6493C18.7278 19.2175 19.2138 18.7302 19.6457 18.1985L19.9766 18.095L21.3023 18.5365L22.4464 18.0144L23.7 14.9875L23.2609 13.8086L22.0109 13.183L21.8497 12.8762C21.9207 12.1941 21.9207 11.5059 21.8521 10.825L22.0121 10.517L23.2609 9.89385ZM21.1929 9.68331L20.708 10.6121L20.7285 10.7829C20.8127 11.4879 20.8127 12.2049 20.7261 12.9135L20.7056 13.0855L21.1917 14.0155L22.3706 14.605L22.5042 14.9635L21.585 17.1807L21.2374 17.3395L19.9862 16.9232L18.9853 17.2372L18.8782 17.3732C18.4391 17.935 17.9314 18.4427 17.3732 18.8818L17.2372 18.9877L16.9232 19.9886L17.3395 21.2386L17.1807 21.5862L14.9635 22.5054L14.605 22.3718L14.0155 21.1941L13.0867 20.708L12.9159 20.7285C12.2121 20.8127 11.4951 20.8127 10.7841 20.7261L10.6133 20.7056L9.68331 21.1916L9.09382 22.3718L8.73532 22.5054L6.5181 21.5875L6.3593 21.2398L6.77555 19.9886L6.46156 18.9877L6.32561 18.8806C5.76259 18.4391 5.2549 17.9326 4.81699 17.3744L4.71113 17.2384L3.7114 16.9244L2.46143 17.3419L2.11375 17.1831L1.19462 14.9659L1.32816 14.6074L2.34594 14.0973L2.5276 13.9758L2.99197 13.0879L2.97152 12.9171C2.88731 12.2121 2.88731 11.4951 2.97393 10.7865L2.99438 10.6145L2.50835 9.68452L1.32937 9.09503L1.19462 8.73652L2.11375 6.5193L2.46143 6.3605L3.7126 6.77676L4.71353 6.46276L4.8206 6.32682C5.26092 5.76379 5.7674 5.25731 6.32561 4.8182L6.46156 4.71113L6.77435 3.71019L6.3593 2.46263L6.5181 2.11495L8.73532 1.19583L9.09382 1.32937L9.68331 2.50715L10.6121 2.99318L10.7829 2.97273C11.4879 2.88851 12.2049 2.88851 12.9135 2.97513L13.0855 2.99558L14.0155 2.50835L14.6062 1.32816L14.9647 1.19462L17.1819 2.11375L17.3407 2.46143L16.9244 3.7126L17.2372 4.71353L17.3732 4.8206C17.935 5.26092 18.4427 5.7674 18.8818 6.32682L18.9877 6.46276L19.9886 6.77676L21.2386 6.3605L21.5863 6.5193L22.5054 8.73652L22.3718 9.09503L21.1929 9.68331Z"/>
</mask>
<path d="M23.2609 9.89385L23.7 8.71486L22.4464 5.6892L21.3023 5.16708L19.9778 5.6086L19.6469 5.50514C19.2163 4.9758 18.729 4.48977 18.1961 4.05667L18.0926 3.72343L18.5341 2.39767L18.012 1.25357L14.9863 0L13.8086 0.440315L13.183 1.69028L12.875 1.85149C12.1917 1.78051 11.5035 1.7793 10.825 1.84908L10.517 1.68908L9.89264 0.441518L8.71486 0L5.688 1.25357L5.16588 2.39767L5.6074 3.72102L5.50273 4.05306C4.97339 4.48375 4.48616 4.97098 4.05426 5.50393L3.72222 5.6074L2.39767 5.16588L1.25357 5.688L0 8.71486L0.439112 9.89385L1.68908 10.5194L1.85028 10.8274C1.7793 11.5095 1.7793 12.1977 1.84788 12.8774L1.68787 13.1854L0.440315 13.8098L0.00120296 14.9887L1.25478 18.0144L2.39887 18.5365L3.72222 18.0962L4.05306 18.1997C4.48375 18.729 4.97098 19.215 5.50393 19.6481L5.6074 19.979L5.16588 21.3047L5.6892 22.4488L8.71486 23.7024L9.89385 23.2621L10.5182 22.0133L10.8262 21.8521C11.5095 21.9231 12.1977 21.9231 12.8774 21.8533L13.1842 22.0145L13.8086 23.2621L14.9863 23.7012L18.012 22.4476L18.5341 21.3035L18.0938 19.9802L18.1973 19.6493C18.7278 19.2175 19.2138 18.7302 19.6457 18.1985L19.9766 18.095L21.3023 18.5365L22.4464 18.0144L23.7 14.9875L23.2609 13.8086L22.0109 13.183L21.8497 12.8762C21.9207 12.1941 21.9207 11.5059 21.8521 10.825L22.0121 10.517L23.2609 9.89385ZM21.1929 9.68331L20.708 10.6121L20.7285 10.7829C20.8127 11.4879 20.8127 12.2049 20.7261 12.9135L20.7056 13.0855L21.1917 14.0155L22.3706 14.605L22.5042 14.9635L21.585 17.1807L21.2374 17.3395L19.9862 16.9232L18.9853 17.2372L18.8782 17.3732C18.4391 17.935 17.9314 18.4427 17.3732 18.8818L17.2372 18.9877L16.9232 19.9886L17.3395 21.2386L17.1807 21.5862L14.9635 22.5054L14.605 22.3718L14.0155 21.1941L13.0867 20.708L12.9159 20.7285C12.2121 20.8127 11.4951 20.8127 10.7841 20.7261L10.6133 20.7056L9.68331 21.1916L9.09382 22.3718L8.73532 22.5054L6.5181 21.5875L6.3593 21.2398L6.77555 19.9886L6.46156 18.9877L6.32561 18.8806C5.76259 18.4391 5.2549 17.9326 4.81699 17.3744L4.71113 17.2384L3.7114 16.9244L2.46143 17.3419L2.11375 17.1831L1.19462 14.9659L1.32816 14.6074L2.34594 14.0973L2.5276 13.9758L2.99197 13.0879L2.97152 12.9171C2.88731 12.2121 2.88731 11.4951 2.97393 10.7865L2.99438 10.6145L2.50835 9.68452L1.32937 9.09503L1.19462 8.73652L2.11375 6.5193L2.46143 6.3605L3.7126 6.77676L4.71353 6.46276L4.8206 6.32682C5.26092 5.76379 5.7674 5.25731 6.32561 4.8182L6.46156 4.71113L6.77435 3.71019L6.3593 2.46263L6.5181 2.11495L8.73532 1.19583L9.09382 1.32937L9.68331 2.50715L10.6121 2.99318L10.7829 2.97273C11.4879 2.88851 12.2049 2.88851 12.9135 2.97513L13.0855 2.99558L14.0155 2.50835L14.6062 1.32816L14.9647 1.19462L17.1819 2.11375L17.3407 2.46143L16.9244 3.7126L17.2372 4.71353L17.3732 4.8206C17.935 5.26092 18.4427 5.7674 18.8818 6.32682L18.9877 6.46276L19.9886 6.77676L21.2386 6.3605L21.5863 6.5193L22.5054 8.73652L22.3718 9.09503L21.1929 9.68331Z" fill="#20B9FD" stroke="#20B9FD" stroke-width="4" mask="url(#path-1-inside-1_5094_3140)"/>
<mask id="path-2-inside-2_5094_3140" fill="white">
<path d="M11.8426 5.68195C8.46924 5.68195 5.7251 8.42128 5.7251 11.7898C5.7251 15.1583 8.46924 17.8977 11.8426 17.8977C15.2159 17.8977 17.9601 15.1583 17.9601 11.7898C17.9601 8.42128 15.2159 5.68195 11.8426 5.68195ZM11.8426 16.7861C9.0828 16.7861 6.83791 14.5448 6.83791 11.7898C6.83791 9.03483 9.0828 6.79356 11.8426 6.79356C14.6024 6.79356 16.8473 9.03483 16.8473 11.7898C16.8473 14.5448 14.6024 16.7861 11.8426 16.7861Z"/>
</mask>
<path d="M11.8426 5.68195C8.46924 5.68195 5.7251 8.42128 5.7251 11.7898C5.7251 15.1583 8.46924 17.8977 11.8426 17.8977C15.2159 17.8977 17.9601 15.1583 17.9601 11.7898C17.9601 8.42128 15.2159 5.68195 11.8426 5.68195ZM11.8426 16.7861C9.0828 16.7861 6.83791 14.5448 6.83791 11.7898C6.83791 9.03483 9.0828 6.79356 11.8426 6.79356C14.6024 6.79356 16.8473 9.03483 16.8473 11.7898C16.8473 14.5448 14.6024 16.7861 11.8426 16.7861Z" fill="#20B9FD"/>
<path d="M11.8426 3.68195C7.36775 3.68195 3.7251 7.31364 3.7251 11.7898H7.7251C7.7251 9.52892 9.57074 7.68195 11.8426 7.68195V3.68195ZM3.7251 11.7898C3.7251 16.266 7.36775 19.8977 11.8426 19.8977V15.8977C9.57074 15.8977 7.7251 14.0507 7.7251 11.7898H3.7251ZM11.8426 19.8977C16.3174 19.8977 19.9601 16.266 19.9601 11.7898H15.9601C15.9601 14.0507 14.1144 15.8977 11.8426 15.8977V19.8977ZM19.9601 11.7898C19.9601 7.31364 16.3174 3.68195 11.8426 3.68195V7.68195C14.1144 7.68195 15.9601 9.52892 15.9601 11.7898H19.9601ZM11.8426 14.7861C10.1842 14.7861 8.83791 13.4371 8.83791 11.7898H4.83791C4.83791 15.6525 7.98136 18.7861 11.8426 18.7861V14.7861ZM8.83791 11.7898C8.83791 10.1425 10.1842 8.79356 11.8426 8.79356V4.79356C7.98136 4.79356 4.83791 7.92713 4.83791 11.7898H8.83791ZM11.8426 8.79356C13.5009 8.79356 14.8473 10.1425 14.8473 11.7898H18.8473C18.8473 7.92713 15.7038 4.79356 11.8426 4.79356V8.79356ZM14.8473 11.7898C14.8473 13.4371 13.5009 14.7861 11.8426 14.7861V18.7861C15.7038 18.7861 18.8473 15.6525 18.8473 11.7898H14.8473Z" fill="#20B9FD" mask="url(#path-2-inside-2_5094_3140)"/>
</svg>
