<svg width="56" height="56" viewBox="0 0 56 56" fill="none" xmlns="http://www.w3.org/2000/svg">
<path d="M47.25 49H33.075C30.975 49 29.05 48.125 27.475 46.725L5.25 24.5L17.5 10.5C17.5 17.325 24.675 24.5 31.5 24.5H33.25C33.075 32.375 36.05 38.15 43.75 40.6C44.275 40.775 44.625 40.95 45.15 40.95C47.25 41.475 48.65 43.75 48.125 45.85L47.25 49Z" stroke="white" stroke-width="2" stroke-miterlimit="10" stroke-linecap="round" stroke-linejoin="round"/>
<path d="M1.75 28L25.725 51.975C27.125 53.375 29.225 54.25 31.325 54.25H47.25" stroke="white" stroke-width="2" stroke-miterlimit="10" stroke-linecap="round" stroke-linejoin="round"/>
<path d="M18.375 29.75C19.8247 29.75 21 28.5747 21 27.125C21 25.6753 19.8247 24.5 18.375 24.5C16.9253 24.5 15.75 25.6753 15.75 27.125C15.75 28.5747 16.9253 29.75 18.375 29.75Z" stroke="white" stroke-width="2" stroke-miterlimit="10" stroke-linecap="round" stroke-linejoin="round"/>
<path d="M26.25 33.25H34.125" stroke="white" stroke-width="2" stroke-miterlimit="10" stroke-linecap="round" stroke-linejoin="round"/>
<path d="M29.75 38.5H39.375" stroke="white" stroke-width="2" stroke-miterlimit="10" stroke-linecap="round" stroke-linejoin="round"/>
<path d="M49 1.75L36.225 14.525C33.25 17.5 32.2 21.7 33.25 25.725" stroke="white" stroke-width="2" stroke-miterlimit="10" stroke-linecap="round" stroke-linejoin="round"/>
<path d="M17.5 12.25C20.825 11.2 23.8 8.75 25.55 5.775L28 1.75" stroke="white" stroke-width="2" stroke-miterlimit="10" stroke-linecap="round" stroke-linejoin="round"/>
</svg>
