<svg width="174" height="104" viewBox="0 0 174 104" fill="none" xmlns="http://www.w3.org/2000/svg">
<g clip-path="url(#clip0_4945_2165)">
<path fill-rule="evenodd" clip-rule="evenodd" d="M87 0C126.65 0 160.527 24.991 174 60.2269L130.5 77.0687C123.802 59.4508 106.864 46.9552 87 46.9552C67.1363 46.9552 50.1982 59.4508 43.5 77.0687L0 60.2269C13.4735 24.991 47.3496 0 87 0Z" fill="#E6E6E6"/>
<path fill-rule="evenodd" clip-rule="evenodd" d="M87 0C105.401 0 122.493 5.35522 136.967 14.6687L111.329 53.9403C104.246 49.5164 95.931 47.0328 87.077 47.0328C67.2133 47.0328 50.2752 59.5284 43.577 77.1463L0 60.2269C13.4734 24.991 47.3496 0 87 0Z" fill="#554CE1"/>
<path fill-rule="evenodd" clip-rule="evenodd" d="M145.898 1.08658L87.8469 101.982C86.615 104.078 83.8434 104.621 81.8416 103.302C79.8398 101.982 79.1469 99.2657 80.5327 97.2478L145.898 1.08658Z" fill="black"/>
</g>
<defs>
<clipPath id="clip0_4945_2165">
<rect width="174" height="104" fill="white"/>
</clipPath>
</defs>
</svg>
