<svg width="46" height="46" viewBox="0 0 46 46" fill="none" xmlns="http://www.w3.org/2000/svg">
<path d="M33.0625 14.375C35.4442 14.375 37.375 12.4442 37.375 10.0625C37.375 7.68077 35.4442 5.75 33.0625 5.75C30.6808 5.75 28.75 7.68077 28.75 10.0625C28.75 12.4442 30.6808 14.375 33.0625 14.375Z" stroke="white" stroke-width="2" stroke-miterlimit="10" stroke-linecap="round" stroke-linejoin="round"/>
<path d="M11.5 14.375L15.525 10.35C17.25 8.62499 20.125 8.62499 21.85 10.35L33.2063 21.7062C34.7875 23.2875 37.2313 23.4312 39.1 21.9937L43.125 18.6875" stroke="white" stroke-width="2" stroke-miterlimit="10" stroke-linecap="round" stroke-linejoin="round"/>
<path d="M24.4375 14.375L17.6812 21.1313C15.525 23.2875 16.2437 27.1688 19.1187 28.3188L24.725 30.475C26.3062 31.05 27.4562 32.6313 27.4562 34.3563V42.9813" stroke="white" stroke-width="2" stroke-miterlimit="10" stroke-linecap="round" stroke-linejoin="round"/>
<path d="M20.125 28.75L16.3875 32.4875C15.2375 33.6375 13.3688 33.6375 12.3625 32.4875L7.1875 27.3125" stroke="white" stroke-width="2" stroke-miterlimit="10" stroke-linecap="round" stroke-linejoin="round"/>
<path d="M23 25.875L30.1875 18.6875" stroke="white" stroke-width="2" stroke-miterlimit="10" stroke-linecap="round" stroke-linejoin="round"/>
</svg>
