<?xml version="1.0" encoding="UTF-8"?>
<svg xmlns="http://www.w3.org/2000/svg" width="46px" height="46px" viewBox="0 0 46 46" version="1.1">
<g id="surface1">
<path style=" stroke:none;fill-rule:nonzero;fill:rgb(100%,100%,100%);fill-opacity:1;" d="M 37.265625 0.207031 C 36.65625 0.46875 36.117188 0.90625 35.121094 1.957031 C 34.203125 2.929688 33.933594 3.457031 33.933594 4.332031 C 33.933594 4.664062 33.917969 4.941406 33.890625 4.941406 C 33.871094 4.941406 32.101562 5.246094 29.972656 5.625 C 27.511719 6.0625 25.820312 6.40625 25.335938 6.566406 C 24.007812 7.015625 23.304688 7.511719 21.644531 9.164062 C 20.375 10.421875 20.105469 10.734375 19.875 11.230469 C 19.550781 11.921875 19.40625 12.570312 19.40625 13.296875 L 19.40625 13.835938 L 18.796875 13.835938 C 17.097656 13.835938 15.589844 14.761719 14.832031 16.261719 C 14.445312 17.035156 14.230469 18.03125 14.320312 18.617188 L 14.382812 18.976562 L 14.035156 18.910156 C 13.457031 18.8125 12.507812 19.019531 11.714844 19.40625 C 10.1875 20.152344 9.253906 21.652344 9.253906 23.367188 L 9.253906 23.960938 L 8.464844 24.007812 C 7.59375 24.058594 6.855469 24.285156 6.207031 24.699219 C 5.984375 24.851562 4.742188 26.027344 3.449219 27.332031 C 0.90625 29.898438 0.710938 30.167969 0.25 31.625 C 0.0820312 32.191406 0.046875 32.488281 0.0546875 33.421875 C 0.0546875 34.402344 0.0898438 34.632812 0.304688 35.265625 C 0.808594 36.726562 0.960938 36.917969 5.023438 40.976562 C 7.761719 43.71875 8.902344 44.804688 9.308594 45.046875 C 11.347656 46.25 13.710938 46.296875 15.785156 45.148438 C 16.269531 44.875 16.863281 44.347656 18.714844 42.503906 C 19.992188 41.238281 21.148438 40.015625 21.300781 39.78125 C 21.714844 39.144531 21.941406 38.40625 21.992188 37.527344 L 22.039062 36.746094 L 22.632812 36.746094 C 24.339844 36.746094 25.910156 35.75 26.640625 34.210938 C 26.972656 33.503906 27.179688 32.441406 27.078125 31.921875 L 27.023438 31.617188 L 27.382812 31.679688 C 27.582031 31.707031 28.03125 31.6875 28.371094 31.625 C 30.554688 31.257812 32.15625 29.386719 32.164062 27.195312 L 32.164062 26.59375 L 32.773438 26.59375 C 33.109375 26.59375 33.59375 26.53125 33.863281 26.457031 C 34.867188 26.199219 35.289062 25.902344 36.683594 24.535156 C 38.535156 22.722656 39.242188 21.605469 39.648438 19.898438 C 39.765625 19.425781 41.058594 12.246094 41.058594 12.09375 C 41.058594 12.074219 41.328125 12.066406 41.667969 12.066406 C 42.65625 12.066406 43 11.859375 44.402344 10.441406 C 45.757812 9.066406 45.957031 8.722656 45.957031 7.769531 C 45.957031 6.683594 45.917969 6.640625 42.695312 3.394531 C 39.496094 0.1875 39.386719 0.0976562 38.320312 0.0273438 C 37.894531 0 37.671875 0.0351562 37.265625 0.207031 Z M 38.613281 1.921875 C 38.964844 2.109375 44.085938 7.285156 44.160156 7.527344 C 44.273438 7.925781 44.09375 8.210938 43.1875 9.144531 C 42.21875 10.132812 41.902344 10.339844 41.464844 10.269531 C 41.078125 10.195312 35.804688 4.921875 35.730469 4.546875 C 35.660156 4.113281 35.8125 3.871094 36.683594 2.972656 C 37.851562 1.796875 38.101562 1.652344 38.613281 1.921875 Z M 37.214844 8.777344 L 39.433594 11.003906 L 38.722656 15.011719 C 38.335938 17.214844 37.949219 19.28125 37.871094 19.59375 C 37.527344 20.933594 36.808594 21.976562 35.101562 23.601562 C 34.058594 24.597656 33.546875 24.839844 32.613281 24.769531 C 32.261719 24.75 31.867188 24.652344 31.625 24.535156 C 31.03125 24.230469 21.8125 15.039062 21.5 14.417969 C 21.167969 13.773438 21.121094 12.964844 21.382812 12.28125 C 21.535156 11.878906 21.761719 11.5625 22.398438 10.898438 C 24.050781 9.171875 25.085938 8.464844 26.449219 8.121094 C 26.925781 8.003906 34.4375 6.621094 34.90625 6.566406 C 34.957031 6.566406 35.992188 7.554688 37.214844 8.777344 Z M 19.730469 15.777344 C 20.125 15.910156 20.636719 16.394531 25.03125 20.773438 C 28.542969 24.277344 29.953125 25.738281 30.105469 26.046875 C 30.375 26.585938 30.4375 27.421875 30.242188 28.003906 C 29.703125 29.578125 27.941406 30.320312 26.484375 29.59375 C 26.082031 29.398438 16.648438 19.980469 16.433594 19.558594 C 15.679688 18.113281 16.398438 16.316406 17.941406 15.757812 C 18.410156 15.597656 19.191406 15.605469 19.730469 15.777344 Z M 14.824219 20.953125 C 15.140625 21.085938 16.269531 22.15625 19.972656 25.855469 C 22.585938 28.460938 24.816406 30.753906 24.933594 30.953125 C 25.390625 31.734375 25.382812 32.757812 24.914062 33.621094 C 24.304688 34.742188 22.882812 35.238281 21.609375 34.769531 C 21.09375 34.582031 20.84375 34.347656 16.253906 29.746094 C 11.707031 25.210938 11.417969 24.90625 11.238281 24.410156 C 10.394531 22.109375 12.585938 19.988281 14.824219 20.953125 Z M 9.585938 25.972656 C 10.082031 26.152344 10.386719 26.441406 14.894531 30.941406 C 20.132812 36.164062 20.132812 36.164062 20.195312 37.242188 C 20.222656 37.636719 20.179688 37.914062 20.035156 38.320312 C 19.847656 38.8125 19.65625 39.039062 17.574219 41.121094 C 15.679688 43.015625 15.230469 43.421875 14.742188 43.664062 C 13.316406 44.375 11.734375 44.335938 10.351562 43.566406 C 9.621094 43.160156 2.839844 36.378906 2.433594 35.648438 C 1.652344 34.257812 1.617188 32.695312 2.335938 31.257812 C 2.578125 30.773438 2.984375 30.320312 4.878906 28.425781 C 6.882812 26.433594 7.195312 26.144531 7.636719 25.984375 C 8.273438 25.738281 8.941406 25.738281 9.585938 25.972656 Z M 9.585938 25.972656 "/>
<path style=" stroke:none;fill-rule:nonzero;fill:rgb(100%,100%,100%);fill-opacity:1;" d="M 26.226562 12.523438 C 25.855469 12.640625 25.597656 13.117188 25.667969 13.519531 C 25.730469 13.871094 30.296875 18.460938 30.636719 18.527344 C 31.480469 18.667969 32.046875 17.789062 31.554688 17.097656 C 31.453125 16.960938 30.386719 15.867188 29.179688 14.679688 C 27.71875 13.226562 26.917969 12.496094 26.765625 12.46875 C 26.628906 12.441406 26.386719 12.46875 26.226562 12.523438 Z M 26.226562 12.523438 "/>
<path style=" stroke:none;fill-rule:nonzero;fill:rgb(100%,100%,100%);fill-opacity:1;" d="M 32.980469 19.441406 C 32.363281 19.785156 32.390625 20.671875 33.035156 20.976562 C 33.414062 21.15625 33.773438 21.09375 34.058594 20.789062 C 34.714844 20.089844 33.828125 18.976562 32.980469 19.441406 Z M 32.980469 19.441406 "/>
<path style=" stroke:none;fill-rule:nonzero;fill:rgb(100%,100%,100%);fill-opacity:1;" d="M 40.132812 25.855469 C 39.773438 26.082031 35.648438 34.195312 35.398438 35.171875 C 34.921875 37.023438 35.453125 38.882812 36.828125 40.25 C 37.609375 41.03125 38.300781 41.425781 39.316406 41.6875 C 40.195312 41.914062 41.023438 41.914062 41.902344 41.6875 C 42.925781 41.425781 43.609375 41.03125 44.382812 40.25 C 45.839844 38.792969 46.351562 36.71875 45.730469 34.851562 C 45.425781 33.941406 41.453125 26.226562 41.140625 25.9375 C 40.835938 25.660156 40.5 25.632812 40.132812 25.855469 Z M 42.308594 31.902344 C 43.214844 33.683594 44.003906 35.351562 44.078125 35.605469 C 44.25 36.242188 44.230469 36.808594 44.03125 37.457031 C 43.683594 38.570312 43.097656 39.253906 42.054688 39.746094 C 41.515625 40 41.382812 40.023438 40.609375 40.023438 C 39.835938 40.023438 39.703125 40 39.152344 39.738281 C 38.320312 39.34375 37.796875 38.839844 37.394531 38.023438 C 37.078125 37.375 37.0625 37.292969 37.070312 36.476562 C 37.070312 35.847656 37.113281 35.515625 37.25 35.21875 C 37.511719 34.589844 40.554688 28.660156 40.609375 28.660156 C 40.636719 28.660156 41.398438 30.117188 42.308594 31.902344 Z M 42.308594 31.902344 "/>
</g>
</svg>
