<svg width="14" height="16" viewBox="0 0 14 16" fill="none" xmlns="http://www.w3.org/2000/svg">
<path d="M7.00323 15.1218C7.92443 15.1218 8.67814 14.4264 8.67814 13.5765H5.32832C5.32832 14.4264 6.08203 15.1218 7.00323 15.1218ZM12.028 10.4861V6.62301C12.028 4.25109 10.6629 2.26547 8.25941 1.74009V1.21471C8.25941 0.573438 7.69832 0.0557861 7.00323 0.0557861C6.30814 0.0557861 5.74705 0.573438 5.74705 1.21471V1.74009C3.35193 2.26547 1.9785 4.24336 1.9785 6.62301V10.4861L0.303589 12.0313V12.8039H13.7029V12.0313L12.028 10.4861ZM10.3531 11.2587H3.65341V6.62301C3.65341 4.70693 4.91797 3.14625 7.00323 3.14625C9.08849 3.14625 10.3531 4.70693 10.3531 6.62301V11.2587Z" fill="white"/>
</svg>
