<svg width="25" height="23" viewBox="0 0 25 23" fill="none" xmlns="http://www.w3.org/2000/svg">
<path d="M24.8872 4.42244L19.1976 0.0178223L17.6021 1.7637L23.2916 6.16832L24.8872 4.42244ZM7.42274 1.7637L5.83957 0.0178223L0.150024 4.41103L1.74557 6.15691L7.42274 1.7637ZM13.137 7.02414H11.2817V13.8707L17.1568 17.1228L18.0845 15.7193L13.137 13.0149V7.02414ZM12.5186 2.45976C6.37142 2.45976 1.38688 7.05837 1.38688 12.7296C1.38688 18.4008 6.35905 22.9995 12.5186 22.9995C18.6658 22.9995 23.6503 18.4008 23.6503 12.7296C23.6503 7.05837 18.6658 2.45976 12.5186 2.45976ZM12.5186 20.7173C7.73196 20.7173 3.8606 17.1456 3.8606 12.7296C3.8606 8.31357 7.73196 4.74195 12.5186 4.74195C17.3052 4.74195 21.1766 8.31357 21.1766 12.7296C21.1766 17.1456 17.3052 20.7173 12.5186 20.7173Z" fill="white"/>
</svg>
