<svg width="23" height="24" viewBox="0 0 23 24" fill="none" xmlns="http://www.w3.org/2000/svg">
<path d="M10.35 19.2H12.65V16.8H10.35V19.2ZM11.5 0C5.152 0 0 5.376 0 12C0 18.624 5.152 24 11.5 24C17.848 24 23 18.624 23 12C23 5.376 17.848 0 11.5 0ZM11.5 21.6C6.4285 21.6 2.3 17.292 2.3 12C2.3 6.708 6.4285 2.4 11.5 2.4C16.5715 2.4 20.7 6.708 20.7 12C20.7 17.292 16.5715 21.6 11.5 21.6ZM11.5 4.8C8.9585 4.8 6.9 6.948 6.9 9.6H9.2C9.2 8.28 10.235 7.2 11.5 7.2C12.765 7.2 13.8 8.28 13.8 9.6C13.8 12 10.35 11.7 10.35 15.6H12.65C12.65 12.9 16.1 12.6 16.1 9.6C16.1 6.948 14.0415 4.8 11.5 4.8Z" fill="white"/>
</svg>
