<svg width="28" height="27" viewBox="0 0 28 27" fill="none" xmlns="http://www.w3.org/2000/svg">
<path d="M2.1723 11.7707C2.07489 12.1083 1.99463 12.6511 2.24762 13.169C2.48935 13.6634 2.96242 14.0084 3.65476 14.197C4.39143 16.7115 5.459 18.7614 6.83021 20.2927C8.64318 22.3182 10.9534 23.3922 13.7003 23.4905L14.4038 25.3666L12.7131 25.7048C12.6565 25.7161 12.6027 25.7385 12.5547 25.7706C12.5068 25.8027 12.4656 25.844 12.4336 25.892C12.4016 25.94 12.3793 25.9939 12.3681 26.0505C12.3569 26.1071 12.357 26.1654 12.3683 26.222C12.3796 26.2786 12.402 26.3324 12.4341 26.3804C12.4662 26.4283 12.5075 26.4695 12.5555 26.5015C12.6035 26.5335 12.6574 26.5558 12.714 26.567C12.7706 26.5782 12.8289 26.5781 12.8855 26.5668L16.9514 25.7537L17.2408 26.3325C17.2663 26.3845 17.3019 26.4311 17.3455 26.4693C17.3891 26.5076 17.4399 26.5368 17.4948 26.5554C17.5498 26.5739 17.6079 26.5814 17.6657 26.5774C17.7236 26.5734 17.7801 26.558 17.832 26.5321C17.8839 26.5061 17.9301 26.4702 17.968 26.4263C18.0059 26.3824 18.0348 26.3314 18.0529 26.2763C18.071 26.2212 18.0781 26.163 18.0736 26.1052C18.0692 26.0474 18.0533 25.991 18.027 25.9393L17.5875 25.0603C17.5443 24.9741 17.474 24.9045 17.3874 24.8621C17.3008 24.8198 17.2027 24.807 17.1082 24.8259L15.277 25.192L14.6306 23.4686C16.3574 23.2869 18.018 22.7048 19.4803 21.7685C21.0455 20.7636 22.3084 19.3823 23.2339 17.663C24.3311 15.6248 24.9511 13.1067 25.0794 10.1731C25.1302 10.1611 25.1809 10.1475 25.2313 10.1305C25.421 10.0703 25.5932 9.9648 25.733 9.82314C25.8728 9.68147 25.9761 9.50791 26.0338 9.31744C26.1618 8.90578 26.089 8.40216 25.8569 8.09269L25.545 7.67642H26.8636C26.9286 7.67643 26.9928 7.662 27.0516 7.63418C27.1104 7.60637 27.1622 7.56585 27.2035 7.51556C27.2447 7.46528 27.2743 7.40647 27.29 7.34337C27.3058 7.28028 27.3073 7.21448 27.2946 7.15072C27.0235 5.79538 26.1668 5.29275 25.4959 5.1098C25.3592 5.07284 25.2201 5.04574 25.0795 5.02871C25.0643 4.94169 25.0448 4.85159 25.0196 4.75952C25.4384 4.52906 25.7512 4.14494 25.8921 3.68821C25.958 3.49154 25.9757 3.28193 25.9438 3.07699C25.9119 2.87205 25.8312 2.67776 25.7087 2.51044C25.5859 2.34116 25.4249 2.2033 25.2388 2.10812C25.0526 2.01295 24.8465 1.96316 24.6375 1.96281H24.5907C24.4995 1.70592 24.3311 1.48352 24.1085 1.32615C23.8859 1.16877 23.6201 1.08411 23.3475 1.0838H23.2722C23.181 0.826899 23.0126 0.604508 22.79 0.44713C22.5674 0.289752 22.3016 0.205097 22.029 0.204779H21.15C21.0334 0.204779 20.9216 0.251084 20.8392 0.333508C20.7568 0.415932 20.7104 0.527722 20.7104 0.644287V3.14306C19.3296 3.84402 18.7738 5.62178 18.3776 6.88987C18.2396 7.3313 18.0561 7.91887 17.9147 8.11588H4.96779L1.52638 6.82543C1.46483 6.80235 1.39888 6.79337 1.33339 6.79916C1.26791 6.80494 1.20456 6.82535 1.148 6.85886C1.09145 6.89238 1.04313 6.93816 1.00662 6.99282C0.9701 7.04749 0.946311 7.10965 0.937002 7.17472C0.918433 7.3046 0.522216 10.2351 2.1723 11.7707ZM25.1945 9.05626C25.178 9.11395 25.1469 9.16642 25.1043 9.20866C25.0617 9.25089 25.0089 9.28146 24.951 9.29744C24.7622 9.35902 24.557 9.34705 24.3766 9.26393C24.3153 9.23863 24.2605 9.19954 24.2167 9.1497C24.1729 9.09985 24.1411 9.04058 24.1239 8.97649C24.1059 8.91164 24.1031 8.84353 24.1157 8.77742C24.1283 8.71132 24.1559 8.64899 24.1964 8.59527L24.666 7.96941L25.1538 8.61983C25.1973 8.67784 25.2497 8.87886 25.1945 9.05626ZM25.29 5.96498C25.5051 6.02091 25.7047 6.12488 25.8738 6.26905C26.043 6.41323 26.1773 6.59388 26.2666 6.79741H24.666V5.88273C24.8768 5.88123 25.0868 5.90891 25.29 5.96498ZM21.5895 1.0838H22.029C22.1455 1.08393 22.2572 1.13027 22.3396 1.21267C22.422 1.29506 22.4684 1.40678 22.4685 1.5233C22.4685 1.63987 22.5148 1.75166 22.5972 1.83408C22.6796 1.91651 22.7914 1.96281 22.908 1.96281H23.3475C23.464 1.96294 23.5757 2.00929 23.6581 2.09169C23.7405 2.17408 23.7869 2.2858 23.787 2.40232C23.787 2.51889 23.8333 2.63068 23.9157 2.7131C23.9982 2.79552 24.11 2.84183 24.2265 2.84183H24.6375C24.7076 2.84151 24.7768 2.85804 24.8393 2.89002C24.9017 2.92199 24.9556 2.96849 24.9963 3.0256C25.0367 3.08051 25.0634 3.14431 25.074 3.21165C25.0846 3.27899 25.079 3.34789 25.0575 3.41259C24.9898 3.63773 24.8436 3.8311 24.6454 3.95752C24.6061 3.90198 24.5646 3.84699 24.5191 3.79315C23.9827 3.1619 23.1449 2.84183 22.029 2.84183C21.882 2.84161 21.7351 2.85143 21.5895 2.87122V1.0838ZM19.2166 7.15204C19.8031 5.27478 20.4197 3.72085 22.029 3.72085C22.8962 3.72085 23.9235 3.96258 24.1854 5.04003C24.1598 5.04415 24.1441 5.04717 24.1403 5.04789C24.0407 5.06782 23.951 5.12165 23.8866 5.20023C23.8222 5.2788 23.787 5.37727 23.787 5.47888V7.23692C23.787 7.34432 23.8266 7.44796 23.8981 7.52809L23.4934 8.06764C23.3729 8.22813 23.2906 8.41404 23.2528 8.61117C23.215 8.80831 23.2228 9.01147 23.2754 9.20516C23.3281 9.39885 23.4243 9.57795 23.5567 9.7288C23.6892 9.87965 23.8543 9.99826 24.0395 10.0756C24.0932 10.0978 24.1468 10.1174 24.2004 10.1343C24.0785 12.9214 23.4991 15.3045 22.474 17.2204C21.6257 18.8055 20.4707 20.0791 19.0411 21.0056C16.5912 22.5936 14.1416 22.6197 14.1178 22.6197C8.50155 22.6197 5.86467 18.2867 4.6291 14.3784L6.44696 14.6814C7.03189 15.1989 9.97951 17.6388 13.5441 17.6387C13.6762 17.6387 13.8092 17.6353 13.9431 17.6284C16.11 17.5161 18.055 16.4827 19.724 14.5569C21.2708 12.7724 21.7861 11.2783 21.2554 10.1161C20.9278 9.39853 20.2257 8.86046 19.1688 8.51693C19.034 8.47298 18.898 8.43419 18.7617 8.39914C18.9263 8.08017 19.0594 7.65494 19.2166 7.15204ZM16.3154 8.99495C18.8678 8.99495 20.1278 9.76272 20.4559 10.4813C20.8255 11.2908 20.3427 12.501 19.0598 13.9812C17.5545 15.7178 15.8197 16.6495 13.9028 16.7501C10.909 16.9081 8.23043 14.9989 7.29735 14.246C8.35679 13.218 11.6532 10.1015 13.7844 8.99478L16.3154 8.99495ZM5.28369 8.99495H12.1071C10.0249 10.4281 7.60929 12.7158 6.70056 13.5995C6.18045 12.8336 5.14167 11.0269 5.28369 8.99495ZM1.76712 7.85448L4.41324 8.84661C4.24134 10.8684 5.07531 12.6502 5.69293 13.6647L4.08812 13.3973C3.53785 13.2857 3.18503 13.0807 3.03945 12.7872C2.8292 12.3636 3.08224 11.8316 3.0834 11.8286C3.12948 11.7366 3.1418 11.6313 3.1182 11.5311C3.09461 11.4309 3.0366 11.3422 2.95429 11.2804C1.84536 10.4487 1.74015 8.73817 1.76712 7.85448Z" fill="black"/>
<path d="M22.4685 5.91839C22.7114 5.91839 22.9083 5.72162 22.9083 5.47888C22.9083 5.23615 22.7114 5.03937 22.4685 5.03937C22.2257 5.03937 22.0288 5.23615 22.0288 5.47888C22.0288 5.72162 22.2257 5.91839 22.4685 5.91839Z" fill="black"/>
</svg>
