<svg width="46" height="46" viewBox="0 0 46 46" fill="none" xmlns="http://www.w3.org/2000/svg">
<path d="M30.9062 4.31251C28.175 4.45626 25.5875 5.46251 23.7187 7.33126L22.425 8.62501C24.5812 8.62501 26.5937 9.63126 27.8875 11.3563C28.75 12.3625 30.0437 12.9375 31.4812 12.9375C34.2125 12.9375 36.3687 10.6375 35.9375 7.90626C35.5062 5.75001 33.35 4.16876 30.9062 4.31251Z" stroke="white" stroke-width="2" stroke-miterlimit="10" stroke-linecap="round" stroke-linejoin="round"/>
<path d="M8.625 41.6875C12.5945 41.6875 15.8125 38.4695 15.8125 34.5C15.8125 30.5305 12.5945 27.3125 8.625 27.3125C4.65545 27.3125 1.4375 30.5305 1.4375 34.5C1.4375 38.4695 4.65545 41.6875 8.625 41.6875Z" stroke="white" stroke-width="2" stroke-miterlimit="10" stroke-linecap="round" stroke-linejoin="round"/>
<path d="M37.375 41.6875C41.3445 41.6875 44.5625 38.4695 44.5625 34.5C44.5625 30.5305 41.3445 27.3125 37.375 27.3125C33.4055 27.3125 30.1875 30.5305 30.1875 34.5C30.1875 38.4695 33.4055 41.6875 37.375 41.6875Z" stroke="white" stroke-width="2" stroke-miterlimit="10" stroke-linecap="round" stroke-linejoin="round"/>
<path d="M37.375 20.125H30.1875L25.5875 15.525C24.15 14.0875 21.7062 13.9438 20.125 15.3813L15.0937 19.6938C13.9437 20.7 14.0875 22.425 15.3812 23.2875L24.4375 28.75L21.5625 37.375" stroke="white" stroke-width="2" stroke-miterlimit="10" stroke-linecap="round" stroke-linejoin="round"/>
<path d="M26.5938 16.5312L17.5375 24.4375" stroke="white" stroke-width="2" stroke-miterlimit="10" stroke-linecap="round" stroke-linejoin="round"/>
<path d="M8.625 35.9375C9.41891 35.9375 10.0625 35.2939 10.0625 34.5C10.0625 33.7061 9.41891 33.0625 8.625 33.0625C7.83109 33.0625 7.1875 33.7061 7.1875 34.5C7.1875 35.2939 7.83109 35.9375 8.625 35.9375Z" fill="white"/>
<path d="M37.375 35.9375C38.1689 35.9375 38.8125 35.2939 38.8125 34.5C38.8125 33.7061 38.1689 33.0625 37.375 33.0625C36.5811 33.0625 35.9375 33.7061 35.9375 34.5C35.9375 35.2939 36.5811 35.9375 37.375 35.9375Z" fill="white"/>
</svg>
