<svg width="28" height="28" viewBox="0 0 28 28" fill="none" xmlns="http://www.w3.org/2000/svg">
<path d="M27.3163 5.3956L23.9513 4.0488L22.605 0.683201L20.8433 2.4444C18.7718 1.2152 16.4181 0.560001 14.0001 0.560001C6.58958 0.560001 0.560059 6.58952 0.560059 14C0.560059 21.4105 6.58958 27.44 14.0001 27.44C21.4105 27.44 27.4401 21.4105 27.4401 14C27.4401 11.5819 26.7849 9.22824 25.5557 7.1568L27.3163 5.3956ZM23.0889 4.9112L25.3233 5.80496L23.9445 7.18312L21.7113 6.2888L20.8175 4.05496L22.1957 2.67624L23.0889 4.9112ZM26.3201 14C26.3201 20.7934 20.7934 26.32 14.0001 26.32C7.2067 26.32 1.68006 20.7934 1.68006 14C1.68006 7.20664 7.2067 1.68 14.0001 1.68C16.1213 1.68 18.1917 2.22376 20.0296 3.25808L19.5026 3.78504L20.6226 6.5856L19.9176 7.29064C18.3378 5.89456 16.2692 5.04 14.0001 5.04C9.05974 5.04 5.04006 9.05968 5.04006 14C5.04006 18.9403 9.05974 22.96 14.0001 22.96C18.9404 22.96 22.9601 18.9403 22.9601 14C22.9601 11.7309 22.1055 9.66224 20.71 8.08192L21.415 7.37688L24.2156 8.49688L24.7425 7.96992C25.7763 9.8084 26.3201 11.8787 26.3201 14ZM17.3601 14C17.3601 15.853 15.8531 17.36 14.0001 17.36C12.147 17.36 10.6401 15.853 10.6401 14C10.6401 12.147 12.147 10.64 14.0001 10.64C14.7247 10.64 15.3945 10.873 15.9438 11.2644L14.2868 12.9214C14.1944 12.8974 14.0997 12.88 14.0001 12.88C13.3818 12.88 12.8801 13.3812 12.8801 14C12.8801 14.6188 13.3818 15.12 14.0001 15.12C14.6183 15.12 15.1201 14.6188 15.1201 14C15.1201 13.9003 15.1027 13.8057 15.0786 13.7133L16.7357 12.0562C17.1271 12.6056 17.3601 13.2754 17.3601 14ZM16.7429 10.4653C15.9836 9.87504 15.0338 9.52 14.0001 9.52C11.5299 9.52 9.52006 11.5298 9.52006 14C9.52006 16.4702 11.5299 18.48 14.0001 18.48C16.4702 18.48 18.4801 16.4702 18.4801 14C18.4801 12.9662 18.125 12.0165 17.5348 11.2571L19.9187 8.8732C21.1121 10.2497 21.8401 12.0394 21.8401 14C21.8401 18.3232 18.3233 21.84 14.0001 21.84C9.67686 21.84 6.16006 18.3232 6.16006 14C6.16006 9.6768 9.67686 6.16 14.0001 6.16C15.9601 6.16 17.7504 6.888 19.1263 8.08192L16.7429 10.4653Z" fill="#FD6B22"/>
</svg>
