<svg width="16" height="12" viewBox="0 0 16 12" fill="none" xmlns="http://www.w3.org/2000/svg">
<path opacity="0.4" d="M2.4 5.20039C3.2825 5.20039 4 4.48289 4 3.60039C4 2.71789 3.2825 2.00039 2.4 2.00039C1.5175 2.00039 0.8 2.71789 0.8 3.60039C0.8 4.48289 1.5175 5.20039 2.4 5.20039ZM13.6 5.20039C14.4825 5.20039 15.2 4.48289 15.2 3.60039C15.2 2.71789 14.4825 2.00039 13.6 2.00039C12.7175 2.00039 12 2.71789 12 3.60039C12 4.48289 12.7175 5.20039 13.6 5.20039ZM14.4 6.00039H12.8C12.36 6.00039 11.9625 6.17789 11.6725 6.46539C12.68 7.01789 13.395 8.01539 13.55 9.20039H15.2C15.6425 9.20039 16 8.84289 16 8.40039V7.60039C16 6.71789 15.2825 6.00039 14.4 6.00039ZM8 6.00039C9.5475 6.00039 10.8 4.74789 10.8 3.20039C10.8 1.65289 9.5475 0.400391 8 0.400391C6.4525 0.400391 5.2 1.65289 5.2 3.20039C5.2 4.74789 6.4525 6.00039 8 6.00039ZM9.92 6.80039H9.7125C9.1925 7.05039 8.615 7.20039 8 7.20039C7.385 7.20039 6.81 7.05039 6.2875 6.80039H6.08C4.49 6.80039 3.2 8.09039 3.2 9.68039V10.4004C3.2 11.0629 3.7375 11.6004 4.4 11.6004H11.6C12.2625 11.6004 12.8 11.0629 12.8 10.4004V9.68039C12.8 8.09039 11.51 6.80039 9.92 6.80039ZM4.3275 6.46539C4.0375 6.17789 3.64 6.00039 3.2 6.00039H1.6C0.7175 6.00039 0 6.71789 0 7.60039V8.40039C0 8.84289 0.3575 9.20039 0.8 9.20039H2.4475C2.605 8.01539 3.32 7.01789 4.3275 6.46539Z" fill="#9FA2B4"/>
</svg>
